G04 #@! TF.GenerationSoftware,KiCad,Pcbnew,(6.0.1)*
G04 #@! TF.CreationDate,2022-02-24T00:37:53+09:00*
G04 #@! TF.ProjectId,KPD02-YMF288Solo-20220117,4b504430-322d-4594-9d46-323838536f6c,rev?*
G04 #@! TF.SameCoordinates,Original*
G04 #@! TF.FileFunction,Legend,Top*
G04 #@! TF.FilePolarity,Positive*
%FSLAX46Y46*%
G04 Gerber Fmt 4.6, Leading zero omitted, Abs format (unit mm)*
G04 Created by KiCad (PCBNEW (6.0.1)) date 2022-02-24 00:37:53*
%MOMM*%
%LPD*%
G01*
G04 APERTURE LIST*
%ADD10C,0.150000*%
%ADD11C,0.120000*%
%ADD12C,0.127000*%
%ADD13C,0.010000*%
G04 APERTURE END LIST*
D10*
X195915595Y-149507380D02*
X195915595Y-148507380D01*
X196487023Y-149507380D02*
X196058452Y-148935952D01*
X196487023Y-148507380D02*
X195915595Y-149078809D01*
X196915595Y-149507380D02*
X196915595Y-148507380D01*
X197296547Y-148507380D01*
X197391785Y-148555000D01*
X197439404Y-148602619D01*
X197487023Y-148697857D01*
X197487023Y-148840714D01*
X197439404Y-148935952D01*
X197391785Y-148983571D01*
X197296547Y-149031190D01*
X196915595Y-149031190D01*
X197915595Y-149507380D02*
X197915595Y-148507380D01*
X198153690Y-148507380D01*
X198296547Y-148555000D01*
X198391785Y-148650238D01*
X198439404Y-148745476D01*
X198487023Y-148935952D01*
X198487023Y-149078809D01*
X198439404Y-149269285D01*
X198391785Y-149364523D01*
X198296547Y-149459761D01*
X198153690Y-149507380D01*
X197915595Y-149507380D01*
X199106071Y-148507380D02*
X199201309Y-148507380D01*
X199296547Y-148555000D01*
X199344166Y-148602619D01*
X199391785Y-148697857D01*
X199439404Y-148888333D01*
X199439404Y-149126428D01*
X199391785Y-149316904D01*
X199344166Y-149412142D01*
X199296547Y-149459761D01*
X199201309Y-149507380D01*
X199106071Y-149507380D01*
X199010833Y-149459761D01*
X198963214Y-149412142D01*
X198915595Y-149316904D01*
X198867976Y-149126428D01*
X198867976Y-148888333D01*
X198915595Y-148697857D01*
X198963214Y-148602619D01*
X199010833Y-148555000D01*
X199106071Y-148507380D01*
X199820357Y-148602619D02*
X199867976Y-148555000D01*
X199963214Y-148507380D01*
X200201309Y-148507380D01*
X200296547Y-148555000D01*
X200344166Y-148602619D01*
X200391785Y-148697857D01*
X200391785Y-148793095D01*
X200344166Y-148935952D01*
X199772738Y-149507380D01*
X200391785Y-149507380D01*
X200820357Y-149126428D02*
X201582261Y-149126428D01*
X202248928Y-149031190D02*
X202248928Y-149507380D01*
X201915595Y-148507380D02*
X202248928Y-149031190D01*
X202582261Y-148507380D01*
X202915595Y-149507380D02*
X202915595Y-148507380D01*
X203248928Y-149221666D01*
X203582261Y-148507380D01*
X203582261Y-149507380D01*
X204391785Y-148983571D02*
X204058452Y-148983571D01*
X204058452Y-149507380D02*
X204058452Y-148507380D01*
X204534642Y-148507380D01*
X204867976Y-148602619D02*
X204915595Y-148555000D01*
X205010833Y-148507380D01*
X205248928Y-148507380D01*
X205344166Y-148555000D01*
X205391785Y-148602619D01*
X205439404Y-148697857D01*
X205439404Y-148793095D01*
X205391785Y-148935952D01*
X204820357Y-149507380D01*
X205439404Y-149507380D01*
X206010833Y-148935952D02*
X205915595Y-148888333D01*
X205867976Y-148840714D01*
X205820357Y-148745476D01*
X205820357Y-148697857D01*
X205867976Y-148602619D01*
X205915595Y-148555000D01*
X206010833Y-148507380D01*
X206201309Y-148507380D01*
X206296547Y-148555000D01*
X206344166Y-148602619D01*
X206391785Y-148697857D01*
X206391785Y-148745476D01*
X206344166Y-148840714D01*
X206296547Y-148888333D01*
X206201309Y-148935952D01*
X206010833Y-148935952D01*
X205915595Y-148983571D01*
X205867976Y-149031190D01*
X205820357Y-149126428D01*
X205820357Y-149316904D01*
X205867976Y-149412142D01*
X205915595Y-149459761D01*
X206010833Y-149507380D01*
X206201309Y-149507380D01*
X206296547Y-149459761D01*
X206344166Y-149412142D01*
X206391785Y-149316904D01*
X206391785Y-149126428D01*
X206344166Y-149031190D01*
X206296547Y-148983571D01*
X206201309Y-148935952D01*
X206963214Y-148935952D02*
X206867976Y-148888333D01*
X206820357Y-148840714D01*
X206772738Y-148745476D01*
X206772738Y-148697857D01*
X206820357Y-148602619D01*
X206867976Y-148555000D01*
X206963214Y-148507380D01*
X207153690Y-148507380D01*
X207248928Y-148555000D01*
X207296547Y-148602619D01*
X207344166Y-148697857D01*
X207344166Y-148745476D01*
X207296547Y-148840714D01*
X207248928Y-148888333D01*
X207153690Y-148935952D01*
X206963214Y-148935952D01*
X206867976Y-148983571D01*
X206820357Y-149031190D01*
X206772738Y-149126428D01*
X206772738Y-149316904D01*
X206820357Y-149412142D01*
X206867976Y-149459761D01*
X206963214Y-149507380D01*
X207153690Y-149507380D01*
X207248928Y-149459761D01*
X207296547Y-149412142D01*
X207344166Y-149316904D01*
X207344166Y-149126428D01*
X207296547Y-149031190D01*
X207248928Y-148983571D01*
X207153690Y-148935952D01*
X207725119Y-149459761D02*
X207867976Y-149507380D01*
X208106071Y-149507380D01*
X208201309Y-149459761D01*
X208248928Y-149412142D01*
X208296547Y-149316904D01*
X208296547Y-149221666D01*
X208248928Y-149126428D01*
X208201309Y-149078809D01*
X208106071Y-149031190D01*
X207915595Y-148983571D01*
X207820357Y-148935952D01*
X207772738Y-148888333D01*
X207725119Y-148793095D01*
X207725119Y-148697857D01*
X207772738Y-148602619D01*
X207820357Y-148555000D01*
X207915595Y-148507380D01*
X208153690Y-148507380D01*
X208296547Y-148555000D01*
X208867976Y-149507380D02*
X208772738Y-149459761D01*
X208725119Y-149412142D01*
X208677500Y-149316904D01*
X208677500Y-149031190D01*
X208725119Y-148935952D01*
X208772738Y-148888333D01*
X208867976Y-148840714D01*
X209010833Y-148840714D01*
X209106071Y-148888333D01*
X209153690Y-148935952D01*
X209201309Y-149031190D01*
X209201309Y-149316904D01*
X209153690Y-149412142D01*
X209106071Y-149459761D01*
X209010833Y-149507380D01*
X208867976Y-149507380D01*
X209772738Y-149507380D02*
X209677500Y-149459761D01*
X209629880Y-149364523D01*
X209629880Y-148507380D01*
X210296547Y-149507380D02*
X210201309Y-149459761D01*
X210153690Y-149412142D01*
X210106071Y-149316904D01*
X210106071Y-149031190D01*
X210153690Y-148935952D01*
X210201309Y-148888333D01*
X210296547Y-148840714D01*
X210439404Y-148840714D01*
X210534642Y-148888333D01*
X210582261Y-148935952D01*
X210629880Y-149031190D01*
X210629880Y-149316904D01*
X210582261Y-149412142D01*
X210534642Y-149459761D01*
X210439404Y-149507380D01*
X210296547Y-149507380D01*
X211725119Y-148840714D02*
X211963214Y-149507380D01*
X212201309Y-148840714D01*
X212772738Y-148507380D02*
X212867976Y-148507380D01*
X212963214Y-148555000D01*
X213010833Y-148602619D01*
X213058452Y-148697857D01*
X213106071Y-148888333D01*
X213106071Y-149126428D01*
X213058452Y-149316904D01*
X213010833Y-149412142D01*
X212963214Y-149459761D01*
X212867976Y-149507380D01*
X212772738Y-149507380D01*
X212677500Y-149459761D01*
X212629880Y-149412142D01*
X212582261Y-149316904D01*
X212534642Y-149126428D01*
X212534642Y-148888333D01*
X212582261Y-148697857D01*
X212629880Y-148602619D01*
X212677500Y-148555000D01*
X212772738Y-148507380D01*
X213534642Y-149412142D02*
X213582261Y-149459761D01*
X213534642Y-149507380D01*
X213487023Y-149459761D01*
X213534642Y-149412142D01*
X213534642Y-149507380D01*
X214534642Y-149507380D02*
X213963214Y-149507380D01*
X214248928Y-149507380D02*
X214248928Y-148507380D01*
X214153690Y-148650238D01*
X214058452Y-148745476D01*
X213963214Y-148793095D01*
X214963214Y-149412142D02*
X215010833Y-149459761D01*
X214963214Y-149507380D01*
X214915595Y-149459761D01*
X214963214Y-149412142D01*
X214963214Y-149507380D01*
X215391785Y-148602619D02*
X215439404Y-148555000D01*
X215534642Y-148507380D01*
X215772738Y-148507380D01*
X215867976Y-148555000D01*
X215915595Y-148602619D01*
X215963214Y-148697857D01*
X215963214Y-148793095D01*
X215915595Y-148935952D01*
X215344166Y-149507380D01*
X215963214Y-149507380D01*
X196201309Y-151498333D02*
X196153690Y-151450714D01*
X196058452Y-151307857D01*
X196010833Y-151212619D01*
X195963214Y-151069761D01*
X195915595Y-150831666D01*
X195915595Y-150641190D01*
X195963214Y-150403095D01*
X196010833Y-150260238D01*
X196058452Y-150165000D01*
X196153690Y-150022142D01*
X196201309Y-149974523D01*
X197010833Y-151069761D02*
X196915595Y-151117380D01*
X196725119Y-151117380D01*
X196629880Y-151069761D01*
X196582261Y-151022142D01*
X196534642Y-150926904D01*
X196534642Y-150641190D01*
X196582261Y-150545952D01*
X196629880Y-150498333D01*
X196725119Y-150450714D01*
X196915595Y-150450714D01*
X197010833Y-150498333D01*
X197344166Y-151498333D02*
X197391785Y-151450714D01*
X197487023Y-151307857D01*
X197534642Y-151212619D01*
X197582261Y-151069761D01*
X197629880Y-150831666D01*
X197629880Y-150641190D01*
X197582261Y-150403095D01*
X197534642Y-150260238D01*
X197487023Y-150165000D01*
X197391785Y-150022142D01*
X197344166Y-149974523D01*
X198058452Y-150212619D02*
X198106071Y-150165000D01*
X198201309Y-150117380D01*
X198439404Y-150117380D01*
X198534642Y-150165000D01*
X198582261Y-150212619D01*
X198629880Y-150307857D01*
X198629880Y-150403095D01*
X198582261Y-150545952D01*
X198010833Y-151117380D01*
X198629880Y-151117380D01*
X199248928Y-150117380D02*
X199344166Y-150117380D01*
X199439404Y-150165000D01*
X199487023Y-150212619D01*
X199534642Y-150307857D01*
X199582261Y-150498333D01*
X199582261Y-150736428D01*
X199534642Y-150926904D01*
X199487023Y-151022142D01*
X199439404Y-151069761D01*
X199344166Y-151117380D01*
X199248928Y-151117380D01*
X199153690Y-151069761D01*
X199106071Y-151022142D01*
X199058452Y-150926904D01*
X199010833Y-150736428D01*
X199010833Y-150498333D01*
X199058452Y-150307857D01*
X199106071Y-150212619D01*
X199153690Y-150165000D01*
X199248928Y-150117380D01*
X199963214Y-150212619D02*
X200010833Y-150165000D01*
X200106071Y-150117380D01*
X200344166Y-150117380D01*
X200439404Y-150165000D01*
X200487023Y-150212619D01*
X200534642Y-150307857D01*
X200534642Y-150403095D01*
X200487023Y-150545952D01*
X199915595Y-151117380D01*
X200534642Y-151117380D01*
X200915595Y-150212619D02*
X200963214Y-150165000D01*
X201058452Y-150117380D01*
X201296547Y-150117380D01*
X201391785Y-150165000D01*
X201439404Y-150212619D01*
X201487023Y-150307857D01*
X201487023Y-150403095D01*
X201439404Y-150545952D01*
X200867976Y-151117380D01*
X201487023Y-151117380D01*
X203296547Y-150641190D02*
X203248928Y-150593571D01*
X203153690Y-150545952D01*
X203058452Y-150545952D01*
X202963214Y-150593571D01*
X202915595Y-150641190D01*
X202867976Y-150736428D01*
X202867976Y-150831666D01*
X202915595Y-150926904D01*
X202963214Y-150974523D01*
X203058452Y-151022142D01*
X203153690Y-151022142D01*
X203248928Y-150974523D01*
X203296547Y-150926904D01*
X203296547Y-150545952D02*
X203296547Y-150926904D01*
X203344166Y-150974523D01*
X203391785Y-150974523D01*
X203487023Y-150926904D01*
X203534642Y-150831666D01*
X203534642Y-150593571D01*
X203439404Y-150450714D01*
X203296547Y-150355476D01*
X203106071Y-150307857D01*
X202915595Y-150355476D01*
X202772738Y-150450714D01*
X202677500Y-150593571D01*
X202629880Y-150784047D01*
X202677500Y-150974523D01*
X202772738Y-151117380D01*
X202915595Y-151212619D01*
X203106071Y-151260238D01*
X203296547Y-151212619D01*
X203439404Y-151117380D01*
X203963214Y-150450714D02*
X203963214Y-151450714D01*
X203963214Y-150498333D02*
X204058452Y-150450714D01*
X204248928Y-150450714D01*
X204344166Y-150498333D01*
X204391785Y-150545952D01*
X204439404Y-150641190D01*
X204439404Y-150926904D01*
X204391785Y-151022142D01*
X204344166Y-151069761D01*
X204248928Y-151117380D01*
X204058452Y-151117380D01*
X203963214Y-151069761D01*
X205010833Y-151117380D02*
X204915595Y-151069761D01*
X204867976Y-151022142D01*
X204820357Y-150926904D01*
X204820357Y-150641190D01*
X204867976Y-150545952D01*
X204915595Y-150498333D01*
X205010833Y-150450714D01*
X205153690Y-150450714D01*
X205248928Y-150498333D01*
X205296547Y-150545952D01*
X205344166Y-150641190D01*
X205344166Y-150926904D01*
X205296547Y-151022142D01*
X205248928Y-151069761D01*
X205153690Y-151117380D01*
X205010833Y-151117380D01*
X205772738Y-150450714D02*
X205772738Y-151117380D01*
X205772738Y-150545952D02*
X205820357Y-150498333D01*
X205915595Y-150450714D01*
X206058452Y-150450714D01*
X206153690Y-150498333D01*
X206201309Y-150593571D01*
X206201309Y-151117380D01*
X206582261Y-150450714D02*
X207106071Y-150450714D01*
X206582261Y-151117380D01*
X207106071Y-151117380D01*
X207915595Y-150450714D02*
X207915595Y-151117380D01*
X207487023Y-150450714D02*
X207487023Y-150974523D01*
X207534642Y-151069761D01*
X207629880Y-151117380D01*
X207772738Y-151117380D01*
X207867976Y-151069761D01*
X207915595Y-151022142D01*
X208582261Y-150117380D02*
X208677500Y-150117380D01*
X208772738Y-150165000D01*
X208820357Y-150212619D01*
X208867976Y-150307857D01*
X208915595Y-150498333D01*
X208915595Y-150736428D01*
X208867976Y-150926904D01*
X208820357Y-151022142D01*
X208772738Y-151069761D01*
X208677500Y-151117380D01*
X208582261Y-151117380D01*
X208487023Y-151069761D01*
X208439404Y-151022142D01*
X208391785Y-150926904D01*
X208344166Y-150736428D01*
X208344166Y-150498333D01*
X208391785Y-150307857D01*
X208439404Y-150212619D01*
X208487023Y-150165000D01*
X208582261Y-150117380D01*
X209867976Y-151117380D02*
X209296547Y-151117380D01*
X209582261Y-151117380D02*
X209582261Y-150117380D01*
X209487023Y-150260238D01*
X209391785Y-150355476D01*
X209296547Y-150403095D01*
X210725119Y-150450714D02*
X210725119Y-151117380D01*
X210487023Y-150069761D02*
X210248928Y-150784047D01*
X210867976Y-150784047D01*
X211153690Y-150117380D02*
X211820357Y-150117380D01*
X211391785Y-151117380D01*
G04 #@! TO.C,R8*
X201450380Y-94654666D02*
X200974190Y-94988000D01*
X201450380Y-95226095D02*
X200450380Y-95226095D01*
X200450380Y-94845142D01*
X200498000Y-94749904D01*
X200545619Y-94702285D01*
X200640857Y-94654666D01*
X200783714Y-94654666D01*
X200878952Y-94702285D01*
X200926571Y-94749904D01*
X200974190Y-94845142D01*
X200974190Y-95226095D01*
X200878952Y-94083238D02*
X200831333Y-94178476D01*
X200783714Y-94226095D01*
X200688476Y-94273714D01*
X200640857Y-94273714D01*
X200545619Y-94226095D01*
X200498000Y-94178476D01*
X200450380Y-94083238D01*
X200450380Y-93892761D01*
X200498000Y-93797523D01*
X200545619Y-93749904D01*
X200640857Y-93702285D01*
X200688476Y-93702285D01*
X200783714Y-93749904D01*
X200831333Y-93797523D01*
X200878952Y-93892761D01*
X200878952Y-94083238D01*
X200926571Y-94178476D01*
X200974190Y-94226095D01*
X201069428Y-94273714D01*
X201259904Y-94273714D01*
X201355142Y-94226095D01*
X201402761Y-94178476D01*
X201450380Y-94083238D01*
X201450380Y-93892761D01*
X201402761Y-93797523D01*
X201355142Y-93749904D01*
X201259904Y-93702285D01*
X201069428Y-93702285D01*
X200974190Y-93749904D01*
X200926571Y-93797523D01*
X200878952Y-93892761D01*
G04 #@! TO.C,C1*
X199747142Y-87796666D02*
X199794761Y-87844285D01*
X199842380Y-87987142D01*
X199842380Y-88082380D01*
X199794761Y-88225238D01*
X199699523Y-88320476D01*
X199604285Y-88368095D01*
X199413809Y-88415714D01*
X199270952Y-88415714D01*
X199080476Y-88368095D01*
X198985238Y-88320476D01*
X198890000Y-88225238D01*
X198842380Y-88082380D01*
X198842380Y-87987142D01*
X198890000Y-87844285D01*
X198937619Y-87796666D01*
X199842380Y-86844285D02*
X199842380Y-87415714D01*
X199842380Y-87130000D02*
X198842380Y-87130000D01*
X198985238Y-87225238D01*
X199080476Y-87320476D01*
X199128095Y-87415714D01*
G04 #@! TO.C,J2*
X221606666Y-83512380D02*
X221606666Y-84226666D01*
X221559047Y-84369523D01*
X221463809Y-84464761D01*
X221320952Y-84512380D01*
X221225714Y-84512380D01*
X222035238Y-83607619D02*
X222082857Y-83560000D01*
X222178095Y-83512380D01*
X222416190Y-83512380D01*
X222511428Y-83560000D01*
X222559047Y-83607619D01*
X222606666Y-83702857D01*
X222606666Y-83798095D01*
X222559047Y-83940952D01*
X221987619Y-84512380D01*
X222606666Y-84512380D01*
G04 #@! TO.C,SW2*
X167651666Y-143184761D02*
X167794523Y-143232380D01*
X168032619Y-143232380D01*
X168127857Y-143184761D01*
X168175476Y-143137142D01*
X168223095Y-143041904D01*
X168223095Y-142946666D01*
X168175476Y-142851428D01*
X168127857Y-142803809D01*
X168032619Y-142756190D01*
X167842142Y-142708571D01*
X167746904Y-142660952D01*
X167699285Y-142613333D01*
X167651666Y-142518095D01*
X167651666Y-142422857D01*
X167699285Y-142327619D01*
X167746904Y-142280000D01*
X167842142Y-142232380D01*
X168080238Y-142232380D01*
X168223095Y-142280000D01*
X168556428Y-142232380D02*
X168794523Y-143232380D01*
X168985000Y-142518095D01*
X169175476Y-143232380D01*
X169413571Y-142232380D01*
X169746904Y-142327619D02*
X169794523Y-142280000D01*
X169889761Y-142232380D01*
X170127857Y-142232380D01*
X170223095Y-142280000D01*
X170270714Y-142327619D01*
X170318333Y-142422857D01*
X170318333Y-142518095D01*
X170270714Y-142660952D01*
X169699285Y-143232380D01*
X170318333Y-143232380D01*
G04 #@! TO.C,R3*
X220813333Y-107132380D02*
X220480000Y-106656190D01*
X220241904Y-107132380D02*
X220241904Y-106132380D01*
X220622857Y-106132380D01*
X220718095Y-106180000D01*
X220765714Y-106227619D01*
X220813333Y-106322857D01*
X220813333Y-106465714D01*
X220765714Y-106560952D01*
X220718095Y-106608571D01*
X220622857Y-106656190D01*
X220241904Y-106656190D01*
X221146666Y-106132380D02*
X221765714Y-106132380D01*
X221432380Y-106513333D01*
X221575238Y-106513333D01*
X221670476Y-106560952D01*
X221718095Y-106608571D01*
X221765714Y-106703809D01*
X221765714Y-106941904D01*
X221718095Y-107037142D01*
X221670476Y-107084761D01*
X221575238Y-107132380D01*
X221289523Y-107132380D01*
X221194285Y-107084761D01*
X221146666Y-107037142D01*
G04 #@! TO.C,J1*
X203501666Y-111617380D02*
X203501666Y-112331666D01*
X203454047Y-112474523D01*
X203358809Y-112569761D01*
X203215952Y-112617380D01*
X203120714Y-112617380D01*
X204501666Y-112617380D02*
X203930238Y-112617380D01*
X204215952Y-112617380D02*
X204215952Y-111617380D01*
X204120714Y-111760238D01*
X204025476Y-111855476D01*
X203930238Y-111903095D01*
G04 #@! TO.C,R1*
X209383333Y-102222380D02*
X209050000Y-101746190D01*
X208811904Y-102222380D02*
X208811904Y-101222380D01*
X209192857Y-101222380D01*
X209288095Y-101270000D01*
X209335714Y-101317619D01*
X209383333Y-101412857D01*
X209383333Y-101555714D01*
X209335714Y-101650952D01*
X209288095Y-101698571D01*
X209192857Y-101746190D01*
X208811904Y-101746190D01*
X210335714Y-102222380D02*
X209764285Y-102222380D01*
X210050000Y-102222380D02*
X210050000Y-101222380D01*
X209954761Y-101365238D01*
X209859523Y-101460476D01*
X209764285Y-101508095D01*
G04 #@! TO.C,R2*
X209383333Y-107302380D02*
X209050000Y-106826190D01*
X208811904Y-107302380D02*
X208811904Y-106302380D01*
X209192857Y-106302380D01*
X209288095Y-106350000D01*
X209335714Y-106397619D01*
X209383333Y-106492857D01*
X209383333Y-106635714D01*
X209335714Y-106730952D01*
X209288095Y-106778571D01*
X209192857Y-106826190D01*
X208811904Y-106826190D01*
X209764285Y-106397619D02*
X209811904Y-106350000D01*
X209907142Y-106302380D01*
X210145238Y-106302380D01*
X210240476Y-106350000D01*
X210288095Y-106397619D01*
X210335714Y-106492857D01*
X210335714Y-106588095D01*
X210288095Y-106730952D01*
X209716666Y-107302380D01*
X210335714Y-107302380D01*
G04 #@! TO.C,U2*
X200618214Y-111853023D02*
X201428050Y-111853023D01*
X201523325Y-111805386D01*
X201570963Y-111757749D01*
X201618600Y-111662474D01*
X201618600Y-111471924D01*
X201570963Y-111376649D01*
X201523325Y-111329012D01*
X201428050Y-111281374D01*
X200618214Y-111281374D01*
X200713489Y-110852637D02*
X200665852Y-110805000D01*
X200618214Y-110709725D01*
X200618214Y-110471538D01*
X200665852Y-110376263D01*
X200713489Y-110328626D01*
X200808764Y-110280988D01*
X200904039Y-110280988D01*
X201046951Y-110328626D01*
X201618600Y-110900275D01*
X201618600Y-110280988D01*
G04 #@! TO.C,SW1*
X153046666Y-143184761D02*
X153189523Y-143232380D01*
X153427619Y-143232380D01*
X153522857Y-143184761D01*
X153570476Y-143137142D01*
X153618095Y-143041904D01*
X153618095Y-142946666D01*
X153570476Y-142851428D01*
X153522857Y-142803809D01*
X153427619Y-142756190D01*
X153237142Y-142708571D01*
X153141904Y-142660952D01*
X153094285Y-142613333D01*
X153046666Y-142518095D01*
X153046666Y-142422857D01*
X153094285Y-142327619D01*
X153141904Y-142280000D01*
X153237142Y-142232380D01*
X153475238Y-142232380D01*
X153618095Y-142280000D01*
X153951428Y-142232380D02*
X154189523Y-143232380D01*
X154380000Y-142518095D01*
X154570476Y-143232380D01*
X154808571Y-142232380D01*
X155713333Y-143232380D02*
X155141904Y-143232380D01*
X155427619Y-143232380D02*
X155427619Y-142232380D01*
X155332380Y-142375238D01*
X155237142Y-142470476D01*
X155141904Y-142518095D01*
G04 #@! TO.C,R6*
X178903333Y-142812380D02*
X178570000Y-142336190D01*
X178331904Y-142812380D02*
X178331904Y-141812380D01*
X178712857Y-141812380D01*
X178808095Y-141860000D01*
X178855714Y-141907619D01*
X178903333Y-142002857D01*
X178903333Y-142145714D01*
X178855714Y-142240952D01*
X178808095Y-142288571D01*
X178712857Y-142336190D01*
X178331904Y-142336190D01*
X179760476Y-141812380D02*
X179570000Y-141812380D01*
X179474761Y-141860000D01*
X179427142Y-141907619D01*
X179331904Y-142050476D01*
X179284285Y-142240952D01*
X179284285Y-142621904D01*
X179331904Y-142717142D01*
X179379523Y-142764761D01*
X179474761Y-142812380D01*
X179665238Y-142812380D01*
X179760476Y-142764761D01*
X179808095Y-142717142D01*
X179855714Y-142621904D01*
X179855714Y-142383809D01*
X179808095Y-142288571D01*
X179760476Y-142240952D01*
X179665238Y-142193333D01*
X179474761Y-142193333D01*
X179379523Y-142240952D01*
X179331904Y-142288571D01*
X179284285Y-142383809D01*
G04 #@! TO.C,U1*
X143887380Y-94741904D02*
X144696904Y-94741904D01*
X144792142Y-94694285D01*
X144839761Y-94646666D01*
X144887380Y-94551428D01*
X144887380Y-94360952D01*
X144839761Y-94265714D01*
X144792142Y-94218095D01*
X144696904Y-94170476D01*
X143887380Y-94170476D01*
X144887380Y-93170476D02*
X144887380Y-93741904D01*
X144887380Y-93456190D02*
X143887380Y-93456190D01*
X144030238Y-93551428D01*
X144125476Y-93646666D01*
X144173095Y-93741904D01*
G04 #@! TO.C,R5*
X164373333Y-142812380D02*
X164040000Y-142336190D01*
X163801904Y-142812380D02*
X163801904Y-141812380D01*
X164182857Y-141812380D01*
X164278095Y-141860000D01*
X164325714Y-141907619D01*
X164373333Y-142002857D01*
X164373333Y-142145714D01*
X164325714Y-142240952D01*
X164278095Y-142288571D01*
X164182857Y-142336190D01*
X163801904Y-142336190D01*
X165278095Y-141812380D02*
X164801904Y-141812380D01*
X164754285Y-142288571D01*
X164801904Y-142240952D01*
X164897142Y-142193333D01*
X165135238Y-142193333D01*
X165230476Y-142240952D01*
X165278095Y-142288571D01*
X165325714Y-142383809D01*
X165325714Y-142621904D01*
X165278095Y-142717142D01*
X165230476Y-142764761D01*
X165135238Y-142812380D01*
X164897142Y-142812380D01*
X164801904Y-142764761D01*
X164754285Y-142717142D01*
G04 #@! TO.C,SW3*
X182256666Y-143184761D02*
X182399523Y-143232380D01*
X182637619Y-143232380D01*
X182732857Y-143184761D01*
X182780476Y-143137142D01*
X182828095Y-143041904D01*
X182828095Y-142946666D01*
X182780476Y-142851428D01*
X182732857Y-142803809D01*
X182637619Y-142756190D01*
X182447142Y-142708571D01*
X182351904Y-142660952D01*
X182304285Y-142613333D01*
X182256666Y-142518095D01*
X182256666Y-142422857D01*
X182304285Y-142327619D01*
X182351904Y-142280000D01*
X182447142Y-142232380D01*
X182685238Y-142232380D01*
X182828095Y-142280000D01*
X183161428Y-142232380D02*
X183399523Y-143232380D01*
X183590000Y-142518095D01*
X183780476Y-143232380D01*
X184018571Y-142232380D01*
X184304285Y-142232380D02*
X184923333Y-142232380D01*
X184590000Y-142613333D01*
X184732857Y-142613333D01*
X184828095Y-142660952D01*
X184875714Y-142708571D01*
X184923333Y-142803809D01*
X184923333Y-143041904D01*
X184875714Y-143137142D01*
X184828095Y-143184761D01*
X184732857Y-143232380D01*
X184447142Y-143232380D01*
X184351904Y-143184761D01*
X184304285Y-143137142D01*
G04 #@! TO.C,R4*
X150403333Y-142812380D02*
X150070000Y-142336190D01*
X149831904Y-142812380D02*
X149831904Y-141812380D01*
X150212857Y-141812380D01*
X150308095Y-141860000D01*
X150355714Y-141907619D01*
X150403333Y-142002857D01*
X150403333Y-142145714D01*
X150355714Y-142240952D01*
X150308095Y-142288571D01*
X150212857Y-142336190D01*
X149831904Y-142336190D01*
X151260476Y-142145714D02*
X151260476Y-142812380D01*
X151022380Y-141764761D02*
X150784285Y-142479047D01*
X151403333Y-142479047D01*
G04 #@! TO.C,R7*
X194143333Y-142812380D02*
X193810000Y-142336190D01*
X193571904Y-142812380D02*
X193571904Y-141812380D01*
X193952857Y-141812380D01*
X194048095Y-141860000D01*
X194095714Y-141907619D01*
X194143333Y-142002857D01*
X194143333Y-142145714D01*
X194095714Y-142240952D01*
X194048095Y-142288571D01*
X193952857Y-142336190D01*
X193571904Y-142336190D01*
X194476666Y-141812380D02*
X195143333Y-141812380D01*
X194714761Y-142812380D01*
D11*
G04 #@! TO.C,R8*
X199998000Y-97758000D02*
X199668000Y-97758000D01*
X197588000Y-91218000D02*
X197258000Y-91218000D01*
X199668000Y-91218000D02*
X199998000Y-91218000D01*
X199998000Y-91218000D02*
X199998000Y-97758000D01*
X197258000Y-97758000D02*
X197588000Y-97758000D01*
X197258000Y-91218000D02*
X197258000Y-97758000D01*
G04 #@! TO.C,C1*
X201714113Y-90033000D02*
X201714113Y-88924000D01*
X202595113Y-86844000D02*
X202595113Y-85364000D01*
X202114113Y-90249000D02*
X202114113Y-88924000D01*
X200994113Y-89327000D02*
X200994113Y-86441000D01*
X201234113Y-89627000D02*
X201234113Y-88924000D01*
X202955113Y-86844000D02*
X202955113Y-85311000D01*
X201434113Y-89821000D02*
X201434113Y-88924000D01*
X200794113Y-88982000D02*
X200794113Y-86786000D01*
X202635113Y-86844000D02*
X202635113Y-85356000D01*
X202795113Y-90440000D02*
X202795113Y-88924000D01*
X202915113Y-86844000D02*
X202915113Y-85315000D01*
X202274113Y-90312000D02*
X202274113Y-88924000D01*
X200954113Y-89267000D02*
X200954113Y-86501000D01*
X201354113Y-89748000D02*
X201354113Y-88924000D01*
X201954113Y-86844000D02*
X201954113Y-85594000D01*
X201954113Y-90174000D02*
X201954113Y-88924000D01*
X200914113Y-89203000D02*
X200914113Y-86565000D01*
X202314113Y-90326000D02*
X202314113Y-88924000D01*
X201794113Y-86844000D02*
X201794113Y-85684000D01*
X201194113Y-86844000D02*
X201194113Y-86185000D01*
X201234113Y-86844000D02*
X201234113Y-86141000D01*
X201154113Y-89537000D02*
X201154113Y-88924000D01*
X201994113Y-86844000D02*
X201994113Y-85574000D01*
X201314113Y-89710000D02*
X201314113Y-88924000D01*
X205709888Y-89609000D02*
X205709888Y-89109000D01*
X200714113Y-88799000D02*
X200714113Y-86969000D01*
X201674113Y-90006000D02*
X201674113Y-88924000D01*
X200674113Y-88689000D02*
X200674113Y-87079000D01*
X201514113Y-89888000D02*
X201514113Y-88924000D01*
X202234113Y-86844000D02*
X202234113Y-85470000D01*
X202034113Y-86844000D02*
X202034113Y-85555000D01*
X202154113Y-86844000D02*
X202154113Y-85502000D01*
X203155113Y-86844000D02*
X203155113Y-85304000D01*
X202194113Y-86844000D02*
X202194113Y-85486000D01*
X201914113Y-86844000D02*
X201914113Y-85616000D01*
X201394113Y-86844000D02*
X201394113Y-85983000D01*
X203115113Y-90464000D02*
X203115113Y-88924000D01*
X200594113Y-88402000D02*
X200594113Y-87366000D01*
X203035113Y-86844000D02*
X203035113Y-85306000D01*
X202715113Y-86844000D02*
X202715113Y-85341000D01*
X202675113Y-90420000D02*
X202675113Y-88924000D01*
X203075113Y-86844000D02*
X203075113Y-85305000D01*
X201274113Y-89669000D02*
X201274113Y-88924000D01*
X201874113Y-86844000D02*
X201874113Y-85637000D01*
X200834113Y-89062000D02*
X200834113Y-86706000D01*
X201594113Y-86844000D02*
X201594113Y-85819000D01*
X202715113Y-90427000D02*
X202715113Y-88924000D01*
X200554113Y-88168000D02*
X200554113Y-87600000D01*
X202314113Y-86844000D02*
X202314113Y-85442000D01*
X201834113Y-86844000D02*
X201834113Y-85660000D01*
X201554113Y-86844000D02*
X201554113Y-85849000D01*
X202875113Y-86844000D02*
X202875113Y-85319000D01*
X202875113Y-90449000D02*
X202875113Y-88924000D01*
X202475113Y-90375000D02*
X202475113Y-88924000D01*
X202394113Y-90352000D02*
X202394113Y-88924000D01*
X202274113Y-86844000D02*
X202274113Y-85456000D01*
X201274113Y-86844000D02*
X201274113Y-86099000D01*
X201634113Y-89979000D02*
X201634113Y-88924000D01*
X202194113Y-90282000D02*
X202194113Y-88924000D01*
X202154113Y-90266000D02*
X202154113Y-88924000D01*
X200754113Y-88895000D02*
X200754113Y-86873000D01*
X201114113Y-89489000D02*
X201114113Y-86279000D01*
X203155113Y-90464000D02*
X203155113Y-88924000D01*
X200634113Y-88561000D02*
X200634113Y-87207000D01*
X201914113Y-90152000D02*
X201914113Y-88924000D01*
X202074113Y-86844000D02*
X202074113Y-85536000D01*
X202354113Y-90339000D02*
X202354113Y-88924000D01*
X202995113Y-90460000D02*
X202995113Y-88924000D01*
X202234113Y-90298000D02*
X202234113Y-88924000D01*
X201594113Y-89949000D02*
X201594113Y-88924000D01*
X202354113Y-86844000D02*
X202354113Y-85429000D01*
X201514113Y-86844000D02*
X201514113Y-85880000D01*
X201834113Y-90108000D02*
X201834113Y-88924000D01*
X202795113Y-86844000D02*
X202795113Y-85328000D01*
X200874113Y-89135000D02*
X200874113Y-86633000D01*
X201794113Y-90084000D02*
X201794113Y-88924000D01*
X201154113Y-86844000D02*
X201154113Y-86231000D01*
X202955113Y-90457000D02*
X202955113Y-88924000D01*
X202034113Y-90213000D02*
X202034113Y-88924000D01*
X201354113Y-86844000D02*
X201354113Y-86020000D01*
X201434113Y-86844000D02*
X201434113Y-85947000D01*
X202755113Y-86844000D02*
X202755113Y-85334000D01*
X202515113Y-86844000D02*
X202515113Y-85383000D01*
X202434113Y-86844000D02*
X202434113Y-85404000D01*
X202595113Y-90404000D02*
X202595113Y-88924000D01*
X201194113Y-89583000D02*
X201194113Y-88924000D01*
X201474113Y-86844000D02*
X201474113Y-85913000D01*
X202915113Y-90453000D02*
X202915113Y-88924000D01*
X202635113Y-90412000D02*
X202635113Y-88924000D01*
X201994113Y-90194000D02*
X201994113Y-88924000D01*
X202475113Y-86844000D02*
X202475113Y-85393000D01*
X202835113Y-86844000D02*
X202835113Y-85323000D01*
X202835113Y-90445000D02*
X202835113Y-88924000D01*
X201674113Y-86844000D02*
X201674113Y-85762000D01*
X202755113Y-90434000D02*
X202755113Y-88924000D01*
X201074113Y-89438000D02*
X201074113Y-86330000D01*
X201314113Y-86844000D02*
X201314113Y-86058000D01*
X201474113Y-89855000D02*
X201474113Y-88924000D01*
X201634113Y-86844000D02*
X201634113Y-85789000D01*
X202434113Y-90364000D02*
X202434113Y-88924000D01*
X202555113Y-90395000D02*
X202555113Y-88924000D01*
X203115113Y-86844000D02*
X203115113Y-85304000D01*
X201754113Y-90059000D02*
X201754113Y-88924000D01*
X202074113Y-90232000D02*
X202074113Y-88924000D01*
X203075113Y-90463000D02*
X203075113Y-88924000D01*
X201714113Y-86844000D02*
X201714113Y-85735000D01*
X201034113Y-89384000D02*
X201034113Y-86384000D01*
X202555113Y-86844000D02*
X202555113Y-85373000D01*
X201554113Y-89919000D02*
X201554113Y-88924000D01*
X202675113Y-86844000D02*
X202675113Y-85348000D01*
X201874113Y-90131000D02*
X201874113Y-88924000D01*
X201394113Y-89785000D02*
X201394113Y-88924000D01*
X205959888Y-89359000D02*
X205459888Y-89359000D01*
X202114113Y-86844000D02*
X202114113Y-85519000D01*
X202394113Y-86844000D02*
X202394113Y-85416000D01*
X202515113Y-90385000D02*
X202515113Y-88924000D01*
X203035113Y-90462000D02*
X203035113Y-88924000D01*
X202995113Y-86844000D02*
X202995113Y-85308000D01*
X201754113Y-86844000D02*
X201754113Y-85709000D01*
X205775113Y-87884000D02*
G75*
G03*
X205775113Y-87884000I-2620000J0D01*
G01*
G04 #@! TO.C,J2*
X218940000Y-84310000D02*
X217940000Y-84310000D01*
D10*
X209740000Y-97160000D02*
X209740000Y-85360000D01*
X209740000Y-85360000D02*
X209840000Y-85360000D01*
X224240000Y-85360000D02*
X224240000Y-97160000D01*
X224240000Y-94060000D02*
X227840000Y-94060000D01*
X220690000Y-85360000D02*
X224240000Y-85360000D01*
X212440000Y-85360000D02*
X216190000Y-85360000D01*
X227840000Y-87860000D02*
X224240000Y-87860000D01*
X224240000Y-97160000D02*
X216490000Y-97160000D01*
X227840000Y-94060000D02*
X227840000Y-87860000D01*
D11*
X218440000Y-84860000D02*
X218940000Y-84310000D01*
X217940000Y-84310000D02*
X218440000Y-84860000D01*
D10*
X212140000Y-97160000D02*
X209740000Y-97160000D01*
D11*
G04 #@! TO.C,SW2*
X165485000Y-146280000D02*
X165485000Y-147780000D01*
X171235000Y-143780000D02*
X166735000Y-143780000D01*
X172485000Y-147780000D02*
X172485000Y-146280000D01*
X166735000Y-150280000D02*
X171235000Y-150280000D01*
G04 #@! TO.C,R3*
X217710000Y-110590000D02*
X224250000Y-110590000D01*
X217710000Y-107850000D02*
X224250000Y-107850000D01*
X217710000Y-110260000D02*
X217710000Y-110590000D01*
X217710000Y-108180000D02*
X217710000Y-107850000D01*
X224250000Y-110590000D02*
X224250000Y-110260000D01*
X224250000Y-107850000D02*
X224250000Y-108180000D01*
G04 #@! TO.C,J1*
X205165000Y-113605000D02*
X205165000Y-114935000D01*
X202505000Y-116205000D02*
X202505000Y-134045000D01*
X201295000Y-135890000D02*
X201295000Y-113030000D01*
X203835000Y-113605000D02*
X205165000Y-113605000D01*
X225425000Y-135890000D02*
X201295000Y-135890000D01*
X202505000Y-116205000D02*
X205165000Y-116205000D01*
X225425000Y-113030000D02*
X225425000Y-135890000D01*
X203835000Y-113030000D02*
X201295000Y-113030000D01*
X205165000Y-116205000D02*
X205165000Y-134045000D01*
X203835000Y-113030000D02*
X225425000Y-113030000D01*
X202505000Y-134045000D02*
X205165000Y-134045000D01*
G04 #@! TO.C,R1*
X206280000Y-105510000D02*
X212820000Y-105510000D01*
X206280000Y-102770000D02*
X212820000Y-102770000D01*
X206280000Y-103100000D02*
X206280000Y-102770000D01*
X212820000Y-105510000D02*
X212820000Y-105180000D01*
X206280000Y-105180000D02*
X206280000Y-105510000D01*
X212820000Y-102770000D02*
X212820000Y-103100000D01*
G04 #@! TO.C,R2*
X212820000Y-110590000D02*
X212820000Y-110260000D01*
X206280000Y-107850000D02*
X212820000Y-107850000D01*
X212820000Y-107850000D02*
X212820000Y-108180000D01*
X206280000Y-110590000D02*
X212820000Y-110590000D01*
X206280000Y-110260000D02*
X206280000Y-110590000D01*
X206280000Y-108180000D02*
X206280000Y-107850000D01*
D12*
G04 #@! TO.C,U2*
X145470000Y-107970000D02*
X199870000Y-107970000D01*
X199870000Y-107970000D02*
X199870000Y-135870000D01*
X199870000Y-135870000D02*
X145470000Y-135870000D01*
X145470000Y-135870000D02*
X145470000Y-107970000D01*
D11*
G04 #@! TO.C,SW1*
X152130000Y-150280000D02*
X156630000Y-150280000D01*
X156630000Y-143780000D02*
X152130000Y-143780000D01*
X157880000Y-147780000D02*
X157880000Y-146280000D01*
X150880000Y-146280000D02*
X150880000Y-147780000D01*
G04 #@! TO.C,R6*
X175800000Y-141360000D02*
X175800000Y-141030000D01*
X175800000Y-138620000D02*
X175800000Y-138950000D01*
X182340000Y-141360000D02*
X175800000Y-141360000D01*
X182340000Y-138950000D02*
X182340000Y-138620000D01*
X182340000Y-138620000D02*
X175800000Y-138620000D01*
X182340000Y-141030000D02*
X182340000Y-141360000D01*
G04 #@! TO.C,U1*
X196415000Y-102930000D02*
X196415000Y-85030000D01*
X145435000Y-94980000D02*
X145435000Y-100440000D01*
X196355000Y-100440000D02*
X196355000Y-87520000D01*
X145435000Y-87520000D02*
X145435000Y-92980000D01*
X145435000Y-100440000D02*
X196355000Y-100440000D01*
X196415000Y-85030000D02*
X145375000Y-85030000D01*
X145375000Y-85030000D02*
X145375000Y-102930000D01*
X145375000Y-102930000D02*
X196415000Y-102930000D01*
X196355000Y-87520000D02*
X145435000Y-87520000D01*
X145435000Y-94980000D02*
G75*
G03*
X145435000Y-92980000I0J1000000D01*
G01*
G04 #@! TO.C,R5*
X161270000Y-138620000D02*
X161270000Y-138950000D01*
X167810000Y-141030000D02*
X167810000Y-141360000D01*
X167810000Y-138950000D02*
X167810000Y-138620000D01*
X167810000Y-138620000D02*
X161270000Y-138620000D01*
X167810000Y-141360000D02*
X161270000Y-141360000D01*
X161270000Y-141360000D02*
X161270000Y-141030000D01*
D13*
G04 #@! TO.C,G\u002A\u002A\u002A*
X218136476Y-144875250D02*
X218116692Y-145014176D01*
X218116692Y-145014176D02*
X218093477Y-145207057D01*
X218093477Y-145207057D02*
X218070359Y-145423466D01*
X218070359Y-145423466D02*
X218057965Y-145552366D01*
X218057965Y-145552366D02*
X218033729Y-145774316D01*
X218033729Y-145774316D02*
X217998213Y-146045609D01*
X217998213Y-146045609D02*
X217956124Y-146332444D01*
X217956124Y-146332444D02*
X217912173Y-146601018D01*
X217912173Y-146601018D02*
X217910666Y-146609629D01*
X217910666Y-146609629D02*
X217872490Y-146835196D01*
X217872490Y-146835196D02*
X217840453Y-147039600D01*
X217840453Y-147039600D02*
X217817301Y-147204149D01*
X217817301Y-147204149D02*
X217805781Y-147310150D01*
X217805781Y-147310150D02*
X217805000Y-147328790D01*
X217805000Y-147328790D02*
X217805000Y-147445553D01*
X217805000Y-147445553D02*
X217942583Y-147368578D01*
X217942583Y-147368578D02*
X218159700Y-147246419D01*
X218159700Y-147246419D02*
X218351591Y-147136588D01*
X218351591Y-147136588D02*
X218544604Y-147023728D01*
X218544604Y-147023728D02*
X218765091Y-146892481D01*
X218765091Y-146892481D02*
X218948000Y-146782582D01*
X218948000Y-146782582D02*
X219282277Y-146583983D01*
X219282277Y-146583983D02*
X219550903Y-146431051D01*
X219550903Y-146431051D02*
X219758392Y-146322072D01*
X219758392Y-146322072D02*
X219909260Y-146255330D01*
X219909260Y-146255330D02*
X220008021Y-146229110D01*
X220008021Y-146229110D02*
X220059191Y-146241699D01*
X220059191Y-146241699D02*
X220067284Y-146291380D01*
X220067284Y-146291380D02*
X220040997Y-146367426D01*
X220040997Y-146367426D02*
X219996568Y-146436457D01*
X219996568Y-146436457D02*
X219918377Y-146515701D01*
X219918377Y-146515701D02*
X219799555Y-146609838D01*
X219799555Y-146609838D02*
X219633236Y-146723546D01*
X219633236Y-146723546D02*
X219412554Y-146861505D01*
X219412554Y-146861505D02*
X219130641Y-147028393D01*
X219130641Y-147028393D02*
X218780631Y-147228890D01*
X218780631Y-147228890D02*
X218757500Y-147241986D01*
X218757500Y-147241986D02*
X218516975Y-147380697D01*
X218516975Y-147380697D02*
X218307474Y-147506577D01*
X218307474Y-147506577D02*
X218138951Y-147613252D01*
X218138951Y-147613252D02*
X218021358Y-147694350D01*
X218021358Y-147694350D02*
X217964649Y-147743499D01*
X217964649Y-147743499D02*
X217961026Y-147751977D01*
X217961026Y-147751977D02*
X217998628Y-147885537D01*
X217998628Y-147885537D02*
X218078163Y-148074080D01*
X218078163Y-148074080D02*
X218193234Y-148303070D01*
X218193234Y-148303070D02*
X218245970Y-148399500D01*
X218245970Y-148399500D02*
X218332750Y-148540142D01*
X218332750Y-148540142D02*
X218442832Y-148697332D01*
X218442832Y-148697332D02*
X218565812Y-148858779D01*
X218565812Y-148858779D02*
X218691281Y-149012196D01*
X218691281Y-149012196D02*
X218808833Y-149145293D01*
X218808833Y-149145293D02*
X218908063Y-149245783D01*
X218908063Y-149245783D02*
X218978562Y-149301377D01*
X218978562Y-149301377D02*
X219009538Y-149301142D01*
X219009538Y-149301142D02*
X219026996Y-149232082D01*
X219026996Y-149232082D02*
X219053691Y-149109347D01*
X219053691Y-149109347D02*
X219077379Y-148992166D01*
X219077379Y-148992166D02*
X219155231Y-148758584D01*
X219155231Y-148758584D02*
X219233609Y-148654504D01*
X219233609Y-148654504D02*
X220139189Y-148654504D01*
X220139189Y-148654504D02*
X220152380Y-148713229D01*
X220152380Y-148713229D02*
X220184133Y-148750866D01*
X220184133Y-148750866D02*
X220252506Y-148797377D01*
X220252506Y-148797377D02*
X220291263Y-148786264D01*
X220291263Y-148786264D02*
X220286029Y-148734704D01*
X220286029Y-148734704D02*
X220263615Y-148667220D01*
X220263615Y-148667220D02*
X220260333Y-148650037D01*
X220260333Y-148650037D02*
X220225771Y-148634291D01*
X220225771Y-148634291D02*
X220196833Y-148632333D01*
X220196833Y-148632333D02*
X220139189Y-148654504D01*
X220139189Y-148654504D02*
X219233609Y-148654504D01*
X219233609Y-148654504D02*
X219290713Y-148578676D01*
X219290713Y-148578676D02*
X219491035Y-148445214D01*
X219491035Y-148445214D02*
X219700283Y-148367750D01*
X219700283Y-148367750D02*
X219849551Y-148328639D01*
X219849551Y-148328639D02*
X219974925Y-148301792D01*
X219974925Y-148301792D02*
X220039292Y-148293666D01*
X220039292Y-148293666D02*
X220189284Y-148318085D01*
X220189284Y-148318085D02*
X220369270Y-148381355D01*
X220369270Y-148381355D02*
X220543892Y-148468501D01*
X220543892Y-148468501D02*
X220676971Y-148563778D01*
X220676971Y-148563778D02*
X220764528Y-148654828D01*
X220764528Y-148654828D02*
X220800857Y-148734672D01*
X220800857Y-148734672D02*
X220801038Y-148844344D01*
X220801038Y-148844344D02*
X220796365Y-148888619D01*
X220796365Y-148888619D02*
X220765159Y-149056161D01*
X220765159Y-149056161D02*
X220716126Y-149225011D01*
X220716126Y-149225011D02*
X220704778Y-149255127D01*
X220704778Y-149255127D02*
X220647904Y-149367225D01*
X220647904Y-149367225D02*
X220569241Y-149444296D01*
X220569241Y-149444296D02*
X220440714Y-149512405D01*
X220440714Y-149512405D02*
X220416050Y-149523178D01*
X220416050Y-149523178D02*
X220315493Y-149563696D01*
X220315493Y-149563696D02*
X220226687Y-149588561D01*
X220226687Y-149588561D02*
X220128047Y-149599432D01*
X220128047Y-149599432D02*
X219997989Y-149597963D01*
X219997989Y-149597963D02*
X219814928Y-149585810D01*
X219814928Y-149585810D02*
X219710000Y-149577338D01*
X219710000Y-149577338D02*
X219517433Y-149561969D01*
X219517433Y-149561969D02*
X219359042Y-149550315D01*
X219359042Y-149550315D02*
X219251906Y-149543563D01*
X219251906Y-149543563D02*
X219213199Y-149542746D01*
X219213199Y-149542746D02*
X219236130Y-149565200D01*
X219236130Y-149565200D02*
X219322059Y-149612595D01*
X219322059Y-149612595D02*
X219455539Y-149678008D01*
X219455539Y-149678008D02*
X219621128Y-149754513D01*
X219621128Y-149754513D02*
X219803380Y-149835186D01*
X219803380Y-149835186D02*
X219986852Y-149913102D01*
X219986852Y-149913102D02*
X220156098Y-149981336D01*
X220156098Y-149981336D02*
X220295676Y-150032965D01*
X220295676Y-150032965D02*
X220336602Y-150046439D01*
X220336602Y-150046439D02*
X220550351Y-150110398D01*
X220550351Y-150110398D02*
X220696752Y-150145192D01*
X220696752Y-150145192D02*
X220787848Y-150151068D01*
X220787848Y-150151068D02*
X220835682Y-150128274D01*
X220835682Y-150128274D02*
X220852300Y-150077057D01*
X220852300Y-150077057D02*
X220853000Y-150057061D01*
X220853000Y-150057061D02*
X220889077Y-149928401D01*
X220889077Y-149928401D02*
X220997349Y-149843814D01*
X220997349Y-149843814D02*
X221177876Y-149803266D01*
X221177876Y-149803266D02*
X221291796Y-149799451D01*
X221291796Y-149799451D02*
X221520043Y-149825406D01*
X221520043Y-149825406D02*
X221686301Y-149894291D01*
X221686301Y-149894291D02*
X221785512Y-150001394D01*
X221785512Y-150001394D02*
X221812616Y-150142004D01*
X221812616Y-150142004D02*
X221785450Y-150259228D01*
X221785450Y-150259228D02*
X221750146Y-150325388D01*
X221750146Y-150325388D02*
X221692571Y-150357603D01*
X221692571Y-150357603D02*
X221585961Y-150367587D01*
X221585961Y-150367587D02*
X221536926Y-150368000D01*
X221536926Y-150368000D02*
X221258209Y-150350864D01*
X221258209Y-150350864D02*
X220927008Y-150303149D01*
X220927008Y-150303149D02*
X220567416Y-150230391D01*
X220567416Y-150230391D02*
X220203526Y-150138128D01*
X220203526Y-150138128D02*
X219859432Y-150031894D01*
X219859432Y-150031894D02*
X219559227Y-149917228D01*
X219559227Y-149917228D02*
X219541306Y-149909394D01*
X219541306Y-149909394D02*
X219168900Y-149745058D01*
X219168900Y-149745058D02*
X219035239Y-150257612D01*
X219035239Y-150257612D02*
X218976851Y-150489390D01*
X218976851Y-150489390D02*
X218921085Y-150724589D01*
X218921085Y-150724589D02*
X218874856Y-150933271D01*
X218874856Y-150933271D02*
X218848393Y-151066500D01*
X218848393Y-151066500D02*
X218816910Y-151223698D01*
X218816910Y-151223698D02*
X218786796Y-151315502D01*
X218786796Y-151315502D02*
X218748968Y-151360536D01*
X218748968Y-151360536D02*
X218696938Y-151377059D01*
X218696938Y-151377059D02*
X218642692Y-151380672D01*
X218642692Y-151380672D02*
X218616548Y-151358693D01*
X218616548Y-151358693D02*
X218613022Y-151292352D01*
X218613022Y-151292352D02*
X218626630Y-151162877D01*
X218626630Y-151162877D02*
X218628906Y-151144226D01*
X218628906Y-151144226D02*
X218654083Y-151000568D01*
X218654083Y-151000568D02*
X218698577Y-150804839D01*
X218698577Y-150804839D02*
X218755540Y-150585489D01*
X218755540Y-150585489D02*
X218803573Y-150418457D01*
X218803573Y-150418457D02*
X218880655Y-150150383D01*
X218880655Y-150150383D02*
X218927647Y-149947036D01*
X218927647Y-149947036D02*
X218944455Y-149793965D01*
X218944455Y-149793965D02*
X218930986Y-149676724D01*
X218930986Y-149676724D02*
X218887144Y-149580861D01*
X218887144Y-149580861D02*
X218812836Y-149491929D01*
X218812836Y-149491929D02*
X218797436Y-149476721D01*
X218797436Y-149476721D02*
X218683476Y-149348794D01*
X218683476Y-149348794D02*
X218542243Y-149163662D01*
X218542243Y-149163662D02*
X218385623Y-148939191D01*
X218385623Y-148939191D02*
X218225497Y-148693243D01*
X218225497Y-148693243D02*
X218073750Y-148443685D01*
X218073750Y-148443685D02*
X217942264Y-148208379D01*
X217942264Y-148208379D02*
X217902757Y-148131754D01*
X217902757Y-148131754D02*
X217825155Y-147979305D01*
X217825155Y-147979305D02*
X217763967Y-147863239D01*
X217763967Y-147863239D02*
X217727259Y-147798623D01*
X217727259Y-147798623D02*
X217720333Y-147791021D01*
X217720333Y-147791021D02*
X217714851Y-147840678D01*
X217714851Y-147840678D02*
X217699600Y-147960944D01*
X217699600Y-147960944D02*
X217676375Y-148138556D01*
X217676375Y-148138556D02*
X217646970Y-148360248D01*
X217646970Y-148360248D02*
X217613179Y-148612758D01*
X217613179Y-148612758D02*
X217576796Y-148882820D01*
X217576796Y-148882820D02*
X217539615Y-149157171D01*
X217539615Y-149157171D02*
X217503431Y-149422546D01*
X217503431Y-149422546D02*
X217470038Y-149665682D01*
X217470038Y-149665682D02*
X217441229Y-149873314D01*
X217441229Y-149873314D02*
X217418800Y-150032178D01*
X217418800Y-150032178D02*
X217404543Y-150129011D01*
X217404543Y-150129011D02*
X217401824Y-150145750D01*
X217401824Y-150145750D02*
X217374313Y-150241314D01*
X217374313Y-150241314D02*
X217318769Y-150278311D01*
X217318769Y-150278311D02*
X217246869Y-150283333D01*
X217246869Y-150283333D02*
X217115908Y-150283333D01*
X217115908Y-150283333D02*
X217147768Y-150018750D01*
X217147768Y-150018750D02*
X217162138Y-149874978D01*
X217162138Y-149874978D02*
X217178515Y-149672215D01*
X217178515Y-149672215D02*
X217195002Y-149436048D01*
X217195002Y-149436048D02*
X217209699Y-149192063D01*
X217209699Y-149192063D02*
X217211359Y-149161500D01*
X217211359Y-149161500D02*
X217224853Y-148946060D01*
X217224853Y-148946060D02*
X217242611Y-148742291D01*
X217242611Y-148742291D02*
X217266906Y-148534849D01*
X217266906Y-148534849D02*
X217300010Y-148308393D01*
X217300010Y-148308393D02*
X217344198Y-148047579D01*
X217344198Y-148047579D02*
X217401742Y-147737066D01*
X217401742Y-147737066D02*
X217474916Y-147361512D01*
X217474916Y-147361512D02*
X217487338Y-147298833D01*
X217487338Y-147298833D02*
X217518809Y-147112025D01*
X217518809Y-147112025D02*
X217550644Y-146875283D01*
X217550644Y-146875283D02*
X217578502Y-146623210D01*
X217578502Y-146623210D02*
X217593618Y-146452166D01*
X217593618Y-146452166D02*
X217613668Y-146213189D01*
X217613668Y-146213189D02*
X217640460Y-145924378D01*
X217640460Y-145924378D02*
X217670688Y-145619966D01*
X217670688Y-145619966D02*
X217701048Y-145334186D01*
X217701048Y-145334186D02*
X217705012Y-145298583D01*
X217705012Y-145298583D02*
X217777360Y-144653000D01*
X217777360Y-144653000D02*
X218173355Y-144653000D01*
X218173355Y-144653000D02*
X218136476Y-144875250D01*
X218136476Y-144875250D02*
X218136476Y-144875250D01*
G36*
X219491035Y-148445214D02*
G01*
X219700283Y-148367750D01*
X219849551Y-148328639D01*
X219974925Y-148301792D01*
X220039292Y-148293666D01*
X220189284Y-148318085D01*
X220369270Y-148381355D01*
X220543892Y-148468501D01*
X220676971Y-148563778D01*
X220764528Y-148654828D01*
X220800857Y-148734672D01*
X220801038Y-148844344D01*
X220796365Y-148888619D01*
X220765159Y-149056161D01*
X220716126Y-149225011D01*
X220704778Y-149255127D01*
X220647904Y-149367225D01*
X220569241Y-149444296D01*
X220440714Y-149512405D01*
X220416050Y-149523178D01*
X220315493Y-149563696D01*
X220226687Y-149588561D01*
X220128047Y-149599432D01*
X219997989Y-149597963D01*
X219814928Y-149585810D01*
X219710000Y-149577338D01*
X219517433Y-149561969D01*
X219359042Y-149550315D01*
X219251906Y-149543563D01*
X219213199Y-149542746D01*
X219236130Y-149565200D01*
X219322059Y-149612595D01*
X219455539Y-149678008D01*
X219621128Y-149754513D01*
X219803380Y-149835186D01*
X219986852Y-149913102D01*
X220156098Y-149981336D01*
X220295676Y-150032965D01*
X220336602Y-150046439D01*
X220550351Y-150110398D01*
X220696752Y-150145192D01*
X220787848Y-150151068D01*
X220835682Y-150128274D01*
X220852300Y-150077057D01*
X220853000Y-150057061D01*
X220889077Y-149928401D01*
X220997349Y-149843814D01*
X221177876Y-149803266D01*
X221291796Y-149799451D01*
X221520043Y-149825406D01*
X221686301Y-149894291D01*
X221785512Y-150001394D01*
X221812616Y-150142004D01*
X221785450Y-150259228D01*
X221750146Y-150325388D01*
X221692571Y-150357603D01*
X221585961Y-150367587D01*
X221536926Y-150368000D01*
X221258209Y-150350864D01*
X220927008Y-150303149D01*
X220567416Y-150230391D01*
X220203526Y-150138128D01*
X219859432Y-150031894D01*
X219559227Y-149917228D01*
X219541306Y-149909394D01*
X219168900Y-149745058D01*
X219035239Y-150257612D01*
X218976851Y-150489390D01*
X218921085Y-150724589D01*
X218874856Y-150933271D01*
X218848393Y-151066500D01*
X218816910Y-151223698D01*
X218786796Y-151315502D01*
X218748968Y-151360536D01*
X218696938Y-151377059D01*
X218642692Y-151380672D01*
X218616548Y-151358693D01*
X218613022Y-151292352D01*
X218626630Y-151162877D01*
X218628906Y-151144226D01*
X218654083Y-151000568D01*
X218698577Y-150804839D01*
X218755540Y-150585489D01*
X218803573Y-150418457D01*
X218880655Y-150150383D01*
X218927647Y-149947036D01*
X218944455Y-149793965D01*
X218930986Y-149676724D01*
X218887144Y-149580861D01*
X218812836Y-149491929D01*
X218797436Y-149476721D01*
X218683476Y-149348794D01*
X218542243Y-149163662D01*
X218385623Y-148939191D01*
X218225497Y-148693243D01*
X218073750Y-148443685D01*
X217942264Y-148208379D01*
X217902757Y-148131754D01*
X217825155Y-147979305D01*
X217763967Y-147863239D01*
X217727259Y-147798623D01*
X217720333Y-147791021D01*
X217714851Y-147840678D01*
X217699600Y-147960944D01*
X217676375Y-148138556D01*
X217646970Y-148360248D01*
X217613179Y-148612758D01*
X217576796Y-148882820D01*
X217539615Y-149157171D01*
X217503431Y-149422546D01*
X217470038Y-149665682D01*
X217441229Y-149873314D01*
X217418800Y-150032178D01*
X217404543Y-150129011D01*
X217401824Y-150145750D01*
X217374313Y-150241314D01*
X217318769Y-150278311D01*
X217246869Y-150283333D01*
X217115908Y-150283333D01*
X217147768Y-150018750D01*
X217162138Y-149874978D01*
X217178515Y-149672215D01*
X217195002Y-149436048D01*
X217209699Y-149192063D01*
X217211359Y-149161500D01*
X217224853Y-148946060D01*
X217242611Y-148742291D01*
X217266906Y-148534849D01*
X217300010Y-148308393D01*
X217344198Y-148047579D01*
X217401742Y-147737066D01*
X217474916Y-147361512D01*
X217487338Y-147298833D01*
X217518809Y-147112025D01*
X217550644Y-146875283D01*
X217578502Y-146623210D01*
X217593618Y-146452166D01*
X217613668Y-146213189D01*
X217640460Y-145924378D01*
X217670688Y-145619966D01*
X217701048Y-145334186D01*
X217705012Y-145298583D01*
X217777360Y-144653000D01*
X218173355Y-144653000D01*
X218136476Y-144875250D01*
X218116692Y-145014176D01*
X218093477Y-145207057D01*
X218070359Y-145423466D01*
X218057965Y-145552366D01*
X218033729Y-145774316D01*
X217998213Y-146045609D01*
X217956124Y-146332444D01*
X217912173Y-146601018D01*
X217910666Y-146609629D01*
X217872490Y-146835196D01*
X217840453Y-147039600D01*
X217817301Y-147204149D01*
X217805781Y-147310150D01*
X217805000Y-147328790D01*
X217805000Y-147445553D01*
X217942583Y-147368578D01*
X218159700Y-147246419D01*
X218351591Y-147136588D01*
X218544604Y-147023728D01*
X218765091Y-146892481D01*
X218948000Y-146782582D01*
X219282277Y-146583983D01*
X219550903Y-146431051D01*
X219758392Y-146322072D01*
X219909260Y-146255330D01*
X220008021Y-146229110D01*
X220059191Y-146241699D01*
X220067284Y-146291380D01*
X220040997Y-146367426D01*
X219996568Y-146436457D01*
X219918377Y-146515701D01*
X219799555Y-146609838D01*
X219633236Y-146723546D01*
X219412554Y-146861505D01*
X219130641Y-147028393D01*
X218780631Y-147228890D01*
X218757500Y-147241986D01*
X218516975Y-147380697D01*
X218307474Y-147506577D01*
X218138951Y-147613252D01*
X218021358Y-147694350D01*
X217964649Y-147743499D01*
X217961026Y-147751977D01*
X217998628Y-147885537D01*
X218078163Y-148074080D01*
X218193234Y-148303070D01*
X218245970Y-148399500D01*
X218332750Y-148540142D01*
X218442832Y-148697332D01*
X218565812Y-148858779D01*
X218691281Y-149012196D01*
X218808833Y-149145293D01*
X218908063Y-149245783D01*
X218978562Y-149301377D01*
X219009538Y-149301142D01*
X219026996Y-149232082D01*
X219053691Y-149109347D01*
X219077379Y-148992166D01*
X219155231Y-148758584D01*
X219233609Y-148654504D01*
X220139189Y-148654504D01*
X220152380Y-148713229D01*
X220184133Y-148750866D01*
X220252506Y-148797377D01*
X220291263Y-148786264D01*
X220286029Y-148734704D01*
X220263615Y-148667220D01*
X220260333Y-148650037D01*
X220225771Y-148634291D01*
X220196833Y-148632333D01*
X220139189Y-148654504D01*
X219233609Y-148654504D01*
X219290713Y-148578676D01*
X219491035Y-148445214D01*
G37*
X219491035Y-148445214D02*
X219700283Y-148367750D01*
X219849551Y-148328639D01*
X219974925Y-148301792D01*
X220039292Y-148293666D01*
X220189284Y-148318085D01*
X220369270Y-148381355D01*
X220543892Y-148468501D01*
X220676971Y-148563778D01*
X220764528Y-148654828D01*
X220800857Y-148734672D01*
X220801038Y-148844344D01*
X220796365Y-148888619D01*
X220765159Y-149056161D01*
X220716126Y-149225011D01*
X220704778Y-149255127D01*
X220647904Y-149367225D01*
X220569241Y-149444296D01*
X220440714Y-149512405D01*
X220416050Y-149523178D01*
X220315493Y-149563696D01*
X220226687Y-149588561D01*
X220128047Y-149599432D01*
X219997989Y-149597963D01*
X219814928Y-149585810D01*
X219710000Y-149577338D01*
X219517433Y-149561969D01*
X219359042Y-149550315D01*
X219251906Y-149543563D01*
X219213199Y-149542746D01*
X219236130Y-149565200D01*
X219322059Y-149612595D01*
X219455539Y-149678008D01*
X219621128Y-149754513D01*
X219803380Y-149835186D01*
X219986852Y-149913102D01*
X220156098Y-149981336D01*
X220295676Y-150032965D01*
X220336602Y-150046439D01*
X220550351Y-150110398D01*
X220696752Y-150145192D01*
X220787848Y-150151068D01*
X220835682Y-150128274D01*
X220852300Y-150077057D01*
X220853000Y-150057061D01*
X220889077Y-149928401D01*
X220997349Y-149843814D01*
X221177876Y-149803266D01*
X221291796Y-149799451D01*
X221520043Y-149825406D01*
X221686301Y-149894291D01*
X221785512Y-150001394D01*
X221812616Y-150142004D01*
X221785450Y-150259228D01*
X221750146Y-150325388D01*
X221692571Y-150357603D01*
X221585961Y-150367587D01*
X221536926Y-150368000D01*
X221258209Y-150350864D01*
X220927008Y-150303149D01*
X220567416Y-150230391D01*
X220203526Y-150138128D01*
X219859432Y-150031894D01*
X219559227Y-149917228D01*
X219541306Y-149909394D01*
X219168900Y-149745058D01*
X219035239Y-150257612D01*
X218976851Y-150489390D01*
X218921085Y-150724589D01*
X218874856Y-150933271D01*
X218848393Y-151066500D01*
X218816910Y-151223698D01*
X218786796Y-151315502D01*
X218748968Y-151360536D01*
X218696938Y-151377059D01*
X218642692Y-151380672D01*
X218616548Y-151358693D01*
X218613022Y-151292352D01*
X218626630Y-151162877D01*
X218628906Y-151144226D01*
X218654083Y-151000568D01*
X218698577Y-150804839D01*
X218755540Y-150585489D01*
X218803573Y-150418457D01*
X218880655Y-150150383D01*
X218927647Y-149947036D01*
X218944455Y-149793965D01*
X218930986Y-149676724D01*
X218887144Y-149580861D01*
X218812836Y-149491929D01*
X218797436Y-149476721D01*
X218683476Y-149348794D01*
X218542243Y-149163662D01*
X218385623Y-148939191D01*
X218225497Y-148693243D01*
X218073750Y-148443685D01*
X217942264Y-148208379D01*
X217902757Y-148131754D01*
X217825155Y-147979305D01*
X217763967Y-147863239D01*
X217727259Y-147798623D01*
X217720333Y-147791021D01*
X217714851Y-147840678D01*
X217699600Y-147960944D01*
X217676375Y-148138556D01*
X217646970Y-148360248D01*
X217613179Y-148612758D01*
X217576796Y-148882820D01*
X217539615Y-149157171D01*
X217503431Y-149422546D01*
X217470038Y-149665682D01*
X217441229Y-149873314D01*
X217418800Y-150032178D01*
X217404543Y-150129011D01*
X217401824Y-150145750D01*
X217374313Y-150241314D01*
X217318769Y-150278311D01*
X217246869Y-150283333D01*
X217115908Y-150283333D01*
X217147768Y-150018750D01*
X217162138Y-149874978D01*
X217178515Y-149672215D01*
X217195002Y-149436048D01*
X217209699Y-149192063D01*
X217211359Y-149161500D01*
X217224853Y-148946060D01*
X217242611Y-148742291D01*
X217266906Y-148534849D01*
X217300010Y-148308393D01*
X217344198Y-148047579D01*
X217401742Y-147737066D01*
X217474916Y-147361512D01*
X217487338Y-147298833D01*
X217518809Y-147112025D01*
X217550644Y-146875283D01*
X217578502Y-146623210D01*
X217593618Y-146452166D01*
X217613668Y-146213189D01*
X217640460Y-145924378D01*
X217670688Y-145619966D01*
X217701048Y-145334186D01*
X217705012Y-145298583D01*
X217777360Y-144653000D01*
X218173355Y-144653000D01*
X218136476Y-144875250D01*
X218116692Y-145014176D01*
X218093477Y-145207057D01*
X218070359Y-145423466D01*
X218057965Y-145552366D01*
X218033729Y-145774316D01*
X217998213Y-146045609D01*
X217956124Y-146332444D01*
X217912173Y-146601018D01*
X217910666Y-146609629D01*
X217872490Y-146835196D01*
X217840453Y-147039600D01*
X217817301Y-147204149D01*
X217805781Y-147310150D01*
X217805000Y-147328790D01*
X217805000Y-147445553D01*
X217942583Y-147368578D01*
X218159700Y-147246419D01*
X218351591Y-147136588D01*
X218544604Y-147023728D01*
X218765091Y-146892481D01*
X218948000Y-146782582D01*
X219282277Y-146583983D01*
X219550903Y-146431051D01*
X219758392Y-146322072D01*
X219909260Y-146255330D01*
X220008021Y-146229110D01*
X220059191Y-146241699D01*
X220067284Y-146291380D01*
X220040997Y-146367426D01*
X219996568Y-146436457D01*
X219918377Y-146515701D01*
X219799555Y-146609838D01*
X219633236Y-146723546D01*
X219412554Y-146861505D01*
X219130641Y-147028393D01*
X218780631Y-147228890D01*
X218757500Y-147241986D01*
X218516975Y-147380697D01*
X218307474Y-147506577D01*
X218138951Y-147613252D01*
X218021358Y-147694350D01*
X217964649Y-147743499D01*
X217961026Y-147751977D01*
X217998628Y-147885537D01*
X218078163Y-148074080D01*
X218193234Y-148303070D01*
X218245970Y-148399500D01*
X218332750Y-148540142D01*
X218442832Y-148697332D01*
X218565812Y-148858779D01*
X218691281Y-149012196D01*
X218808833Y-149145293D01*
X218908063Y-149245783D01*
X218978562Y-149301377D01*
X219009538Y-149301142D01*
X219026996Y-149232082D01*
X219053691Y-149109347D01*
X219077379Y-148992166D01*
X219155231Y-148758584D01*
X219233609Y-148654504D01*
X220139189Y-148654504D01*
X220152380Y-148713229D01*
X220184133Y-148750866D01*
X220252506Y-148797377D01*
X220291263Y-148786264D01*
X220286029Y-148734704D01*
X220263615Y-148667220D01*
X220260333Y-148650037D01*
X220225771Y-148634291D01*
X220196833Y-148632333D01*
X220139189Y-148654504D01*
X219233609Y-148654504D01*
X219290713Y-148578676D01*
X219491035Y-148445214D01*
X224705206Y-147664754D02*
X224730602Y-147697631D01*
X224730602Y-147697631D02*
X224729906Y-147779214D01*
X224729906Y-147779214D02*
X224720479Y-147859750D01*
X224720479Y-147859750D02*
X224703158Y-147966080D01*
X224703158Y-147966080D02*
X224672752Y-148124297D01*
X224672752Y-148124297D02*
X224633199Y-148316568D01*
X224633199Y-148316568D02*
X224588435Y-148525060D01*
X224588435Y-148525060D02*
X224542399Y-148731942D01*
X224542399Y-148731942D02*
X224499028Y-148919382D01*
X224499028Y-148919382D02*
X224462258Y-149069547D01*
X224462258Y-149069547D02*
X224436029Y-149164606D01*
X224436029Y-149164606D02*
X224427364Y-149187200D01*
X224427364Y-149187200D02*
X224415299Y-149239773D01*
X224415299Y-149239773D02*
X224398098Y-149356219D01*
X224398098Y-149356219D02*
X224378607Y-149516124D01*
X224378607Y-149516124D02*
X224368676Y-149608076D01*
X224368676Y-149608076D02*
X224345881Y-149801128D01*
X224345881Y-149801128D02*
X224320898Y-149931713D01*
X224320898Y-149931713D02*
X224286928Y-150021902D01*
X224286928Y-150021902D02*
X224237174Y-150093770D01*
X224237174Y-150093770D02*
X224209839Y-150123903D01*
X224209839Y-150123903D02*
X224111321Y-150217055D01*
X224111321Y-150217055D02*
X224020364Y-150287034D01*
X224020364Y-150287034D02*
X224006833Y-150295145D01*
X224006833Y-150295145D02*
X223899514Y-150326268D01*
X223899514Y-150326268D02*
X223738692Y-150341322D01*
X223738692Y-150341322D02*
X223554011Y-150340190D01*
X223554011Y-150340190D02*
X223375119Y-150322760D01*
X223375119Y-150322760D02*
X223259532Y-150298030D01*
X223259532Y-150298030D02*
X223022699Y-150186174D01*
X223022699Y-150186174D02*
X222829498Y-150011535D01*
X222829498Y-150011535D02*
X222692221Y-149789982D01*
X222692221Y-149789982D02*
X222623158Y-149537383D01*
X222623158Y-149537383D02*
X222617930Y-149469637D01*
X222617930Y-149469637D02*
X222629734Y-149316148D01*
X222629734Y-149316148D02*
X222907855Y-149316148D01*
X222907855Y-149316148D02*
X222913589Y-149324145D01*
X222913589Y-149324145D02*
X222945082Y-149348672D01*
X222945082Y-149348672D02*
X222988249Y-149341835D01*
X222988249Y-149341835D02*
X223029704Y-149326304D01*
X223029704Y-149326304D02*
X223084635Y-149278470D01*
X223084635Y-149278470D02*
X223092338Y-149218837D01*
X223092338Y-149218837D02*
X223050632Y-149183620D01*
X223050632Y-149183620D02*
X223038350Y-149182666D01*
X223038350Y-149182666D02*
X222969975Y-149207753D01*
X222969975Y-149207753D02*
X222917433Y-149262502D01*
X222917433Y-149262502D02*
X222907855Y-149316148D01*
X222907855Y-149316148D02*
X222629734Y-149316148D01*
X222629734Y-149316148D02*
X222634955Y-149248266D01*
X222634955Y-149248266D02*
X222707589Y-149085875D01*
X222707589Y-149085875D02*
X222840195Y-148978580D01*
X222840195Y-148978580D02*
X223037137Y-148922500D01*
X223037137Y-148922500D02*
X223244833Y-148911916D01*
X223244833Y-148911916D02*
X223436410Y-148935123D01*
X223436410Y-148935123D02*
X223644728Y-148991939D01*
X223644728Y-148991939D02*
X223844950Y-149072282D01*
X223844950Y-149072282D02*
X224012240Y-149166070D01*
X224012240Y-149166070D02*
X224121762Y-149263220D01*
X224121762Y-149263220D02*
X224126617Y-149269877D01*
X224126617Y-149269877D02*
X224181484Y-149334522D01*
X224181484Y-149334522D02*
X224213929Y-149349445D01*
X224213929Y-149349445D02*
X224229498Y-149301685D01*
X224229498Y-149301685D02*
X224256406Y-149187302D01*
X224256406Y-149187302D02*
X224291423Y-149023079D01*
X224291423Y-149023079D02*
X224331318Y-148825797D01*
X224331318Y-148825797D02*
X224372861Y-148612238D01*
X224372861Y-148612238D02*
X224412823Y-148399183D01*
X224412823Y-148399183D02*
X224447973Y-148203415D01*
X224447973Y-148203415D02*
X224475082Y-148041715D01*
X224475082Y-148041715D02*
X224490918Y-147930864D01*
X224490918Y-147930864D02*
X224493667Y-147896096D01*
X224493667Y-147896096D02*
X224512187Y-147751035D01*
X224512187Y-147751035D02*
X224571097Y-147675049D01*
X224571097Y-147675049D02*
X224645553Y-147658666D01*
X224645553Y-147658666D02*
X224705206Y-147664754D01*
X224705206Y-147664754D02*
X224705206Y-147664754D01*
G36*
X222707589Y-149085875D02*
G01*
X222840195Y-148978580D01*
X223037137Y-148922500D01*
X223244833Y-148911916D01*
X223436410Y-148935123D01*
X223644728Y-148991939D01*
X223844950Y-149072282D01*
X224012240Y-149166070D01*
X224121762Y-149263220D01*
X224126617Y-149269877D01*
X224181484Y-149334522D01*
X224213929Y-149349445D01*
X224229498Y-149301685D01*
X224256406Y-149187302D01*
X224291423Y-149023079D01*
X224331318Y-148825797D01*
X224372861Y-148612238D01*
X224412823Y-148399183D01*
X224447973Y-148203415D01*
X224475082Y-148041715D01*
X224490918Y-147930864D01*
X224493667Y-147896096D01*
X224512187Y-147751035D01*
X224571097Y-147675049D01*
X224645553Y-147658666D01*
X224705206Y-147664754D01*
X224730602Y-147697631D01*
X224729906Y-147779214D01*
X224720479Y-147859750D01*
X224703158Y-147966080D01*
X224672752Y-148124297D01*
X224633199Y-148316568D01*
X224588435Y-148525060D01*
X224542399Y-148731942D01*
X224499028Y-148919382D01*
X224462258Y-149069547D01*
X224436029Y-149164606D01*
X224427364Y-149187200D01*
X224415299Y-149239773D01*
X224398098Y-149356219D01*
X224378607Y-149516124D01*
X224368676Y-149608076D01*
X224345881Y-149801128D01*
X224320898Y-149931713D01*
X224286928Y-150021902D01*
X224237174Y-150093770D01*
X224209839Y-150123903D01*
X224111321Y-150217055D01*
X224020364Y-150287034D01*
X224006833Y-150295145D01*
X223899514Y-150326268D01*
X223738692Y-150341322D01*
X223554011Y-150340190D01*
X223375119Y-150322760D01*
X223259532Y-150298030D01*
X223022699Y-150186174D01*
X222829498Y-150011535D01*
X222692221Y-149789982D01*
X222623158Y-149537383D01*
X222617930Y-149469637D01*
X222629734Y-149316148D01*
X222907855Y-149316148D01*
X222913589Y-149324145D01*
X222945082Y-149348672D01*
X222988249Y-149341835D01*
X223029704Y-149326304D01*
X223084635Y-149278470D01*
X223092338Y-149218837D01*
X223050632Y-149183620D01*
X223038350Y-149182666D01*
X222969975Y-149207753D01*
X222917433Y-149262502D01*
X222907855Y-149316148D01*
X222629734Y-149316148D01*
X222634955Y-149248266D01*
X222707589Y-149085875D01*
G37*
X222707589Y-149085875D02*
X222840195Y-148978580D01*
X223037137Y-148922500D01*
X223244833Y-148911916D01*
X223436410Y-148935123D01*
X223644728Y-148991939D01*
X223844950Y-149072282D01*
X224012240Y-149166070D01*
X224121762Y-149263220D01*
X224126617Y-149269877D01*
X224181484Y-149334522D01*
X224213929Y-149349445D01*
X224229498Y-149301685D01*
X224256406Y-149187302D01*
X224291423Y-149023079D01*
X224331318Y-148825797D01*
X224372861Y-148612238D01*
X224412823Y-148399183D01*
X224447973Y-148203415D01*
X224475082Y-148041715D01*
X224490918Y-147930864D01*
X224493667Y-147896096D01*
X224512187Y-147751035D01*
X224571097Y-147675049D01*
X224645553Y-147658666D01*
X224705206Y-147664754D01*
X224730602Y-147697631D01*
X224729906Y-147779214D01*
X224720479Y-147859750D01*
X224703158Y-147966080D01*
X224672752Y-148124297D01*
X224633199Y-148316568D01*
X224588435Y-148525060D01*
X224542399Y-148731942D01*
X224499028Y-148919382D01*
X224462258Y-149069547D01*
X224436029Y-149164606D01*
X224427364Y-149187200D01*
X224415299Y-149239773D01*
X224398098Y-149356219D01*
X224378607Y-149516124D01*
X224368676Y-149608076D01*
X224345881Y-149801128D01*
X224320898Y-149931713D01*
X224286928Y-150021902D01*
X224237174Y-150093770D01*
X224209839Y-150123903D01*
X224111321Y-150217055D01*
X224020364Y-150287034D01*
X224006833Y-150295145D01*
X223899514Y-150326268D01*
X223738692Y-150341322D01*
X223554011Y-150340190D01*
X223375119Y-150322760D01*
X223259532Y-150298030D01*
X223022699Y-150186174D01*
X222829498Y-150011535D01*
X222692221Y-149789982D01*
X222623158Y-149537383D01*
X222617930Y-149469637D01*
X222629734Y-149316148D01*
X222907855Y-149316148D01*
X222913589Y-149324145D01*
X222945082Y-149348672D01*
X222988249Y-149341835D01*
X223029704Y-149326304D01*
X223084635Y-149278470D01*
X223092338Y-149218837D01*
X223050632Y-149183620D01*
X223038350Y-149182666D01*
X222969975Y-149207753D01*
X222917433Y-149262502D01*
X222907855Y-149316148D01*
X222629734Y-149316148D01*
X222634955Y-149248266D01*
X222707589Y-149085875D01*
D11*
G04 #@! TO.C,SW3*
X185840000Y-143780000D02*
X181340000Y-143780000D01*
X181340000Y-150280000D02*
X185840000Y-150280000D01*
X180090000Y-146280000D02*
X180090000Y-147780000D01*
X187090000Y-147780000D02*
X187090000Y-146280000D01*
G04 #@! TO.C,R4*
X153840000Y-141030000D02*
X153840000Y-141360000D01*
X153840000Y-138620000D02*
X147300000Y-138620000D01*
X147300000Y-141360000D02*
X147300000Y-141030000D01*
X153840000Y-141360000D02*
X147300000Y-141360000D01*
X153840000Y-138950000D02*
X153840000Y-138620000D01*
X147300000Y-138620000D02*
X147300000Y-138950000D01*
G04 #@! TO.C,R7*
X191040000Y-138620000D02*
X191040000Y-138950000D01*
X197580000Y-138950000D02*
X197580000Y-138620000D01*
X197580000Y-141030000D02*
X197580000Y-141360000D01*
X197580000Y-138620000D02*
X191040000Y-138620000D01*
X197580000Y-141360000D02*
X191040000Y-141360000D01*
X191040000Y-141360000D02*
X191040000Y-141030000D01*
G04 #@! TD*
M02*
