M48
; DRILL file {KiCad (6.0.1)} date Thu Feb 24 00:38:17 2022
; FORMAT={-:-/ absolute / metric / decimal}
; #@! TF.CreationDate,2022-02-24T00:38:17+09:00
; #@! TF.GenerationSoftware,Kicad,Pcbnew,(6.0.1)
; #@! TF.FileFunction,MixedPlating,1,2
FMAT,2
METRIC
; #@! TA.AperFunction,Plated,PTH,ViaDrill
T1C0.400
; #@! TA.AperFunction,Plated,PTH,ComponentDrill
T2C0.800
; #@! TA.AperFunction,Plated,PTH,ComponentDrill
T3C1.000
; #@! TA.AperFunction,Plated,PTH,ComponentDrill
T4C1.040
; #@! TA.AperFunction,Plated,PTH,ComponentDrill
T5C1.100
; #@! TA.AperFunction,Plated,PTH,ComponentDrill
T6C1.300
%
G90
G05
T1
X149.86Y-129.54
X152.4Y-121.92
X157.48Y-111.76
X162.56Y-144.78
X164.983Y-125.613
X178.689Y-117.475
X185.42Y-114.3
X187.96Y-93.98
X187.96Y-121.92
X193.04Y-129.54
X195.58Y-119.38
X205.74Y-93.98
X205.74Y-142.24
X215.9Y-127.0
X220.98Y-101.6
T2
X146.76Y-139.99
X146.765Y-86.36
X146.765Y-101.6
X149.305Y-86.36
X149.305Y-101.6
X151.845Y-86.36
X151.845Y-101.6
X154.38Y-139.99
X154.385Y-86.36
X154.385Y-101.6
X156.925Y-86.36
X156.925Y-101.6
X159.465Y-86.36
X159.465Y-101.6
X160.73Y-139.99
X162.005Y-86.36
X162.005Y-101.6
X164.545Y-86.36
X164.545Y-101.6
X167.085Y-86.36
X167.085Y-101.6
X168.35Y-139.99
X169.625Y-86.36
X169.625Y-101.6
X172.165Y-86.36
X172.165Y-101.6
X174.705Y-86.36
X174.705Y-101.6
X175.26Y-139.99
X177.245Y-86.36
X177.245Y-101.6
X179.785Y-86.36
X179.785Y-101.6
X182.325Y-86.36
X182.325Y-101.6
X182.88Y-139.99
X184.865Y-86.36
X184.865Y-101.6
X187.405Y-86.36
X187.405Y-101.6
X189.945Y-86.36
X189.945Y-101.6
X190.5Y-139.99
X192.485Y-86.36
X192.485Y-101.6
X195.025Y-86.36
X195.025Y-101.6
X198.12Y-139.99
X198.628Y-90.678
X198.628Y-98.298
X202.155Y-87.884
X204.155Y-87.884
X205.74Y-104.14
X205.74Y-109.22
X213.36Y-104.14
X213.36Y-109.22
X217.17Y-109.22
X224.79Y-109.22
T3
X203.835Y-114.935
X203.835Y-117.475
X203.835Y-120.015
X203.835Y-122.555
X203.835Y-125.095
X203.835Y-127.635
X203.835Y-130.175
X203.835Y-132.715
T4
X146.76Y-109.22
X146.76Y-134.62
X149.3Y-109.22
X149.3Y-134.62
X151.84Y-109.22
X151.84Y-134.62
X154.38Y-109.22
X154.38Y-134.62
X156.92Y-109.22
X156.92Y-134.62
X159.46Y-109.22
X159.46Y-134.62
X162.0Y-109.22
X162.0Y-134.62
X164.54Y-109.22
X164.54Y-134.62
X167.08Y-109.22
X167.08Y-134.62
X169.62Y-109.22
X169.62Y-134.62
X172.16Y-109.22
X172.16Y-134.62
X174.7Y-109.22
X174.7Y-134.62
X177.24Y-109.22
X177.24Y-134.62
X179.78Y-109.22
X179.78Y-134.62
X182.32Y-109.22
X182.32Y-134.62
X184.86Y-109.22
X184.86Y-134.62
X187.4Y-109.22
X187.4Y-134.62
X189.94Y-109.22
X189.94Y-134.62
X192.48Y-109.22
X192.48Y-134.62
T5
X151.13Y-144.78
X151.13Y-149.28
X157.63Y-144.78
X157.63Y-149.28
X165.735Y-144.78
X165.735Y-149.28
X172.235Y-144.78
X172.235Y-149.28
X180.34Y-144.78
X180.34Y-149.28
X186.84Y-144.78
X186.84Y-149.28
T6
X211.14Y-86.86
X214.34Y-96.16
X215.54Y-93.46
X218.44Y-86.36
X222.34Y-90.96
T0
M30
